<?xml version="1.0" standalone="no"?><!DOCTYPE svg PUBLIC "-//W3C//DTD SVG 1.1//EN" "http://www.w3.org/Graphics/SVG/1.1/DTD/svg11.dtd"><svg t="1707283086622" class="icon" viewBox="0 0 1024 1024" version="1.1" xmlns="http://www.w3.org/2000/svg" p-id="4226" xmlns:xlink="http://www.w3.org/1999/xlink" width="48" height="48"><path d="M910.246336 976.204934h-245.473302c-0.130018 0-0.130018 0.097513-0.260035 0.097513-0.097513 0-0.162522-0.097513-0.227531-0.097513h-2.990406v-1.267672c-16.414727-1.885256-29.676526-14.952028-29.676526-32.21187 0-17.292346 13.261799-30.359119 29.676526-32.244375v-1.300176h3.022911l0.195026-0.065009 0.195026 0.065009h239.850039V379.619l-18.267478-18.625027h-253.891944V101.511271l-18.234973-18.625027H271.729713v283.730992h-0.877619a32.796949 32.796949 0 0 1-32.114356 27.206191c-15.927161 0-29.253969-11.669083-32.081853-27.206191h-0.422557l-0.097513-4.778148V77.067955c0-33.772082 26.816138-61.205803 59.873122-61.205803h375.295914l328.814607 336.030586v563.138897c0 33.772082-26.816138 61.173299-59.873122 61.173299zM697.960036 168.535364v125.564534h122.736651l-122.736651-125.564534zM576.751093 506.743746v405.329987c0 43.360882-34.389665 78.530654-76.840424 78.530654H103.291863c-42.38575 0-76.80792-35.169771-76.80792-78.530654V506.743746c0-43.360882 34.42217-78.530654 76.80792-78.530654h396.618806c42.450759 0 76.840424 35.169771 76.840424 78.530654z m-452.883939-24.443316c-24.573334 0-44.498537 20.34776-44.498537 45.441164v363.334291c0 25.093404 19.925203 45.441165 44.498537 45.441165h355.468223c24.638342 0 44.531041-20.34776 44.531042-45.441165V527.741594c0-25.093404-19.892699-45.441165-44.531042-45.441164H123.867154z m177.961643 382.414379l-6.143334-203.770144-99.36598 203.770144h-57.857849l-10.303898-278.692808h54.964957l2.405326 195.091466 93.580195-195.091466h60.815751l6.33836 192.946175 89.907197-192.946175h54.249859l-131.87039 278.692808H301.828797z" fill="#2c2c2c" p-id="4227"></path></svg>