<?xml version="1.0" standalone="no"?><!DOCTYPE svg PUBLIC "-//W3C//DTD SVG 1.1//EN" "http://www.w3.org/Graphics/SVG/1.1/DTD/svg11.dtd"><svg t="1707183490335" class="icon" viewBox="0 0 1024 1024" version="1.1" xmlns="http://www.w3.org/2000/svg" p-id="2368" width="48" height="48" xmlns:xlink="http://www.w3.org/1999/xlink"><path d="M320 0c-47.4 0-88.8 25.8-110.8 64H96C43 64 0 107 0 160v640c0 53 43 96 96 96h288V352c0-88.4 71.6-160 160-160h96V160c0-53-43-96-96-96h-113.2c-22-38.2-63.4-64-110.8-64z m224 256c-53 0-96 43-96 96v576c0 53 43 96 96 96h384c53 0 96-43 96-96V487.8c0-25.4-10.2-49.8-28.2-67.8L860 284.2c-18-18-42.4-28.2-67.8-28.2H544zM320 80a48 48 0 1 1 0 96 48 48 0 1 1 0-96z" p-id="2369" fill="#515151"></path></svg>