<?xml version="1.0" standalone="no"?><!DOCTYPE svg PUBLIC "-//W3C//DTD SVG 1.1//EN" "http://www.w3.org/Graphics/SVG/1.1/DTD/svg11.dtd"><svg t="1707119552380" class="icon" viewBox="0 0 1024 1024" version="1.1" xmlns="http://www.w3.org/2000/svg" p-id="1539" xmlns:xlink="http://www.w3.org/1999/xlink" width="50" height="50"><path d="M960 981.333333H106.666667a21.333333 21.333333 0 0 1 0-42.666666h853.333333a21.333333 21.333333 0 0 1 0 42.666666z m0-213.333333H106.666667a21.333333 21.333333 0 0 1 0-42.666667h853.333333a21.333333 21.333333 0 0 1 0 42.666667z m0-213.333333H106.666667a21.333333 21.333333 0 0 1 0-42.666667h853.333333a21.333333 21.333333 0 0 1 0 42.666667z m0-213.333334H106.666667a21.333333 21.333333 0 0 1 0-42.666666h853.333333a21.333333 21.333333 0 0 1 0 42.666666z m0-213.333333H320a21.333333 21.333333 0 0 1 0-42.666667h640a21.333333 21.333333 0 0 1 0 42.666667z" fill="#5C5C66" p-id="1540"></path></svg>